<svg id="Ebene_1" data-name="Ebene 1" xmlns="http://www.w3.org/2000/svg" viewBox="0 0 576.28 158.31"><title>chromsens-Logo-2021-web</title><polygon points="72.74 36.01 89.26 35.72 88.97 19.21 72.45 19.49 72.74 36.01" style="fill:#3d6f96"/><polygon points="25.73 105.25 33.68 105.1 33.55 97.13 25.58 97.27 25.73 105.25" style="fill:#3d6f96"/><rect x="48.58" y="131.57" width="7.65" height="7.67" transform="translate(-13.24 -22.27) rotate(-0.96)" style="fill:#3d6f96"/><polygon points="2.14 74.66 2.29 82.64 10.24 82.5 10.11 74.52 2.14 74.66" style="fill:#3d6f96"/><rect x="25.14" y="108.97" width="7.65" height="7.66" transform="translate(-12.87 -22.67) rotate(-0.96)" style="fill:#3d6f96"/><polygon points="48.9 127.55 56.85 127.4 56.72 119.43 48.75 119.57 48.9 127.55" style="fill:#3d6f96"/><polygon points="60.83 138.62 68.78 138.47 68.65 130.5 60.68 130.64 60.83 138.62" style="fill:#3d6f96"/><rect x="64.8" y="35.02" width="15.65" height="15.63" transform="translate(-11.71 -21.9) rotate(-1)" style="fill:#3d6f96"/><polygon points="33.45 38.32 49.97 38.03 49.68 21.52 33.16 21.8 33.45 38.32" style="fill:#3d6f96"/><polygon points="60.2 80.74 72.98 80.52 72.71 68.24 59.92 68.46 60.2 80.74" style="fill:#3d6f96"/><polygon points="70.2 63.36 82.98 63.13 82.71 50.86 69.93 51.07 70.2 63.36" style="fill:#3d6f96"/><polygon points="55.51 98.86 69.25 98.61 68.94 85.17 55.22 85.41 55.51 98.86" style="fill:#3d6f96"/><polygon points="67.35 77.03 72.34 76.95 72.24 71.95 67.25 72.03 67.35 77.03" style="fill:#3d6f96"/><polygon points="74.98 87.68 80.86 87.58 80.75 81.69 74.88 81.79 74.98 87.68" style="fill:#3d6f96"/><polygon points="10.45 33.73 16.32 33.64 16.22 27.74 10.34 27.85 10.45 33.73" style="fill:#3d6f96"/><rect x="93.49" y="51.74" width="13.86" height="13.86" transform="translate(-11.98 -21.42) rotate(-1)" style="fill:#3d6f96"/><rect x="72.24" y="55.63" width="14.75" height="14.75" transform="translate(-12.06 -21.78) rotate(-1)" style="fill:#ec6608"/><rect x="61.1" y="68.82" width="15.65" height="15.63" transform="translate(-12.3 -21.96) rotate(-1)" style="fill:#ec6608"/><polygon points="39.14 75.5 55.66 75.21 55.37 58.69 38.85 58.97 39.14 75.5" style="fill:#ec6608"/><polygon points="28.02 89.58 45.42 89.27 45.12 71.88 27.71 72.17 28.02 89.58" style="fill:#ec6608"/><path d="M144.76,93.08c0-5.08-1-10.54-6-10.54-6.63,0-7.7,5.85-7.7,17.95,0,13,1.17,18.33,7.21,18.33,4.49,0,6.53-3.81,6.53-12.29h12.88c0,13.76-5.75,21.46-20,21.46-13.45,0-20.09-6.54-20.09-27.61,0-21.55,8.88-27.6,21.26-27.6s18.82,7.9,18.82,20.3Z" transform="translate(-10.97 -23.18)" style="fill:#3d6f96"/><path d="M164.66,57h13.45V79.51h.2c2.54-4.48,7.11-6.73,12.77-6.73,8.38,0,13.37,4.59,13.37,14.92v38.93H191V90.44c0-5.27-1.76-7.32-5.76-7.32-4.58,0-7.12,2.83-7.12,8.68v34.83H164.66Z" transform="translate(-10.97 -23.18)" style="fill:#3d6f96"/><path d="M213.41,74.15h12.87v7h.2c2.73-5.07,6.53-8.39,12.09-8.39A20.06,20.06,0,0,1,241,73V85.85c-1.37-.1-2.83-.19-4.2-.19-4.68,0-9.94,2.44-9.94,9.46v31.51H213.41Z" transform="translate(-10.97 -23.18)" style="fill:#3d6f96"/><path d="M264.8,118.82c5.46,0,7.22-5.36,7.22-18.43S270.26,82,264.8,82c-6.63,0-7.22,7.7-7.22,18.44s.59,18.43,7.22,18.43m0-46c16.18-.29,20.67,9.37,20.67,27.61,0,17.94-5.26,27.6-20.67,27.6-16.19.3-20.68-9.36-20.68-27.6,0-18,5.27-27.61,20.68-27.61" transform="translate(-10.97 -23.18)" style="fill:#3d6f96"/><path d="M292.69,74.15h12.86v5.36h.2c3.41-4.78,7.61-6.73,13.26-6.73,6.15,0,10.63,3,12.1,8.39h.19c2.05-5.56,6.93-8.39,13.26-8.39,8.87,0,13.07,5.56,13.07,15.71v38.14H344.17V90c0-4.39-1.46-6.83-5.26-6.83-4.29,0-7,2.93-7,9v34.53H318.43V90c0-4.39-1.47-6.83-5.27-6.83-4.29,0-7,2.93-7,9v34.53H292.69Z" transform="translate(-10.97 -23.18)" style="fill:#3d6f96"/><path d="M391.07,100.39a16.67,16.67,0,0,1-5.75,2.63c-5.46,1.17-7.61,3.8-7.61,8.48,0,4,1.46,7.32,5.07,7.32s8.29-2.33,8.29-8.1ZM366.5,90.24V89c0-12.1,8.29-16.2,18.43-16.2,16,0,19,6.63,19,16.09v27.62c0,4.87.29,7.11,1.65,10.14H392.74a21.63,21.63,0,0,1-1.67-5.46h-.2c-3.11,5.46-6.92,6.82-13.35,6.82-9.37,0-12.68-8-12.68-15,0-9.86,4-13.85,13.26-16.39l7.61-2c4-1.07,5.36-2.63,5.36-6.14,0-4-1.76-6.44-6.24-6.44-4.09,0-6.24,2.73-6.24,6.83v1.46Z" transform="translate(-10.97 -23.18)" style="fill:#3d6f96"/><path d="M423.35,109.46v1.76c0,4.58,2.43,7.6,7,7.6,4.09,0,6.82-2,6.82-6.24,0-3.41-2.25-5-4.87-6l-9.46-3.41c-7.42-2.64-11.22-7.22-11.22-14.63,0-8.69,5.47-15.81,19.31-15.81,12.19,0,17.94,5.46,17.94,14.92v2.16H436.8c0-5.28-1.56-7.91-5.95-7.91-3.41,0-6.34,2-6.34,5.66,0,2.53,1.37,4.68,5.86,6.15l8.09,2.73c8.48,2.82,11.6,7.11,11.6,15,0,11-8.19,16.48-19.5,16.48-15.12,0-19.31-6.63-19.31-16.68v-1.85Z" transform="translate(-10.97 -23.18)" style="fill:#3d6f96"/><path d="M482,94.44c-.3-8-1.27-12.49-6.82-12.49-5.37,0-6.92,5.56-6.92,10.44v2Zm-13.74,8v4.19c0,6.15,1.65,12.19,6.62,12.19,4.49,0,6.34-3.41,7.12-9.85h12.1c-.5,12.19-6.34,19-19,19-19.51,0-20.3-15-20.3-28.09,0-14.05,2.74-27.12,20.87-27.12,15.7,0,19.22,10.54,19.22,26.63v3Z" transform="translate(-10.97 -23.18)" style="fill:#3d6f96"/><path d="M501.93,74.15h12.88v6.14H515c2.82-5.17,7.7-7.51,13.36-7.51,8.38,0,13.36,4.59,13.36,14.92v38.93H528.27V90.44c0-5.27-1.77-7.32-5.75-7.32-4.59,0-7.13,2.83-7.13,8.68v34.83H501.93Z" transform="translate(-10.97 -23.18)" style="fill:#3d6f96"/><path d="M560.54,109.46v1.76c0,4.58,2.43,7.6,7,7.6,4.09,0,6.82-2,6.82-6.24,0-3.41-2.25-5-4.88-6l-9.45-3.41c-7.41-2.64-11.21-7.22-11.21-14.63,0-8.69,5.45-15.81,19.3-15.81,12.18,0,17.94,5.46,17.94,14.92v2.16H574c0-5.28-1.56-7.91-5.94-7.91-3.42,0-6.35,2-6.35,5.66,0,2.53,1.36,4.68,5.86,6.15l8.09,2.73c8.48,2.82,11.6,7.11,11.6,15,0,11-8.19,16.48-19.5,16.48-15.11,0-19.31-6.63-19.31-16.68v-1.85Z" transform="translate(-10.97 -23.18)" style="fill:#3d6f96"/><rect x="93.72" y="29.63" width="9.43" height="9.43" transform="translate(-11.56 -21.45) rotate(-1)" style="fill:#3d6f96"/><polygon points="46.06 40.34 54.02 40.19 53.89 32.22 45.92 32.36 46.06 40.34" style="fill:#ec6608"/><rect x="48.77" y="157.46" width="9.43" height="9.43" transform="translate(-13.8 -22.22) rotate(-1)" style="fill:#3d6f96"/><rect x="54.24" y="146.01" width="9.43" height="9.43" transform="translate(-13.6 -22.12) rotate(-1)" style="fill:#3d6f96"/><polygon points="27.78 148.88 27.95 158.31 37.38 158.14 37.21 148.72 27.78 148.88" style="fill:#3d6f96"/><polygon points="34.56 151.59 40.44 151.49 40.34 145.6 34.46 145.71 34.56 151.59" style="fill:#3d6f96"/><polygon points="13.34 47.05 29.86 46.76 29.57 30.24 13.06 30.52 13.34 47.05" style="fill:#3d6f96"/><rect x="88.92" y="23.26" width="9.43" height="9.43" transform="translate(-11.44 -21.57) rotate(-0.98)" style="fill:#3d6f96"/><rect x="105.56" y="29.11" width="5.87" height="5.89" transform="translate(-11.49 -21.39) rotate(-0.94)" style="fill:#3d6f96"/><polygon points="48.28 114.8 62.01 114.56 61.71 101.11 47.98 101.36 48.28 114.8" style="fill:#3d6f96"/><polygon points="4.78 114.49 12.74 114.34 12.61 106.37 4.64 106.51 4.78 114.49" style="fill:#ec6608"/><polygon points="9.42 98.55 17.38 98.4 17.25 90.42 9.28 90.57 9.42 98.55" style="fill:#ec6608"/><polygon points="0 122.42 0.14 130.39 8.1 130.25 7.96 122.27 0 122.42" style="fill:#ec6608"/><polygon points="14.69 82.39 22.65 82.25 22.51 74.27 14.55 74.42 14.69 82.39" style="fill:#ec6608"/><polygon points="20.14 66.45 28.09 66.31 27.96 58.33 19.99 58.48 20.14 66.45" style="fill:#ec6608"/><polygon points="25.39 50.74 33.34 50.59 33.21 42.62 25.24 42.76 25.39 50.74" style="fill:#ec6608"/><polygon points="30.6 34.8 38.55 34.65 38.42 26.68 30.45 26.82 30.6 34.8" style="fill:#ec6608"/><polygon points="35.81 19.02 43.77 18.87 43.63 10.9 35.66 11.04 35.81 19.02" style="fill:#ec6608"/><path d="M216,160.59h-3V142.37h3Z" transform="translate(-10.97 -23.18)" style="fill:#3d6f96"/><path d="M224.39,142.37l5.25,14h.07l5.26-14h3.94v18.22h-3v-6.2l.3-7.9h-.07l-5.41,14.11h-2l-5.38-14.07h-.08l.3,7.86v6.2h-3V142.37Z" transform="translate(-10.97 -23.18)" style="fill:#3d6f96"/><path d="M253,156.34H245.9l-1.45,4.25h-3.08l6.7-18.22h2.87l6.63,18.22h-3.1Zm-6.25-2.54h5.39L249.53,146h-.07Z" transform="translate(-10.97 -23.18)" style="fill:#3d6f96"/><path d="M273.51,158.13a6.25,6.25,0,0,1-2.38,1.88,9.44,9.44,0,0,1-4.26.85,7.44,7.44,0,0,1-5.42-2.09,7.19,7.19,0,0,1-2.13-5.38v-3.81a7.45,7.45,0,0,1,2-5.39,6.89,6.89,0,0,1,5.19-2.08,7.31,7.31,0,0,1,5,1.58,5.39,5.39,0,0,1,1.82,4.13l0,.07h-2.87a3.56,3.56,0,0,0-1.07-2.42,4,4,0,0,0-2.81-.92,3.75,3.75,0,0,0-3.05,1.41,5.51,5.51,0,0,0-1.16,3.59v3.83a5.25,5.25,0,0,0,1.26,3.62,4.17,4.17,0,0,0,3.26,1.42,6.73,6.73,0,0,0,2.31-.33,3.21,3.21,0,0,0,1.29-.78v-3.7h-3.61v-2.28h6.65Z" transform="translate(-10.97 -23.18)" style="fill:#3d6f96"/><path d="M280.72,160.59h-3V142.37h3Z" transform="translate(-10.97 -23.18)" style="fill:#3d6f96"/><path d="M299.36,160.59h-3l-8.09-13.3-.07,0v13.27h-3V142.37h3l8.08,13.29.08,0V142.37h3Z" transform="translate(-10.97 -23.18)" style="fill:#3d6f96"/><path d="M317.18,158.13A6.25,6.25,0,0,1,314.8,160a9.44,9.44,0,0,1-4.26.85,7.42,7.42,0,0,1-5.42-2.09,7.19,7.19,0,0,1-2.13-5.38v-3.81a7.45,7.45,0,0,1,2-5.39,6.89,6.89,0,0,1,5.19-2.08,7.31,7.31,0,0,1,5,1.58,5.39,5.39,0,0,1,1.82,4.13l0,.07h-2.87a3.56,3.56,0,0,0-1.07-2.42,4,4,0,0,0-2.81-.92,3.75,3.75,0,0,0-3.05,1.41,5.51,5.51,0,0,0-1.16,3.59v3.83a5.25,5.25,0,0,0,1.26,3.62,4.17,4.17,0,0,0,3.26,1.42,6.73,6.73,0,0,0,2.31-.33,3.21,3.21,0,0,0,1.29-.78v-3.7h-3.61v-2.28h6.65Z" transform="translate(-10.97 -23.18)" style="fill:#3d6f96"/><path d="M338.84,152.82h-8v7.77h-3V142.37h12.3v2.44h-9.26v5.57h8Z" transform="translate(-10.97 -23.18)" style="fill:#3d6f96"/><path d="M357.14,153.12a7.69,7.69,0,0,1-2.1,5.54,7.2,7.2,0,0,1-5.44,2.2,7,7,0,0,1-5.32-2.2,7.82,7.82,0,0,1-2-5.54v-3.28a7.85,7.85,0,0,1,2-5.53,6.93,6.93,0,0,1,5.31-2.2,7.2,7.2,0,0,1,5.44,2.2,7.68,7.68,0,0,1,2.11,5.53Zm-3-3.3a5.65,5.65,0,0,0-1.22-3.74,4.06,4.06,0,0,0-3.3-1.47,3.84,3.84,0,0,0-3.17,1.47,5.84,5.84,0,0,0-1.16,3.74v3.3a5.94,5.94,0,0,0,1.16,3.78,3.85,3.85,0,0,0,3.18,1.47,4,4,0,0,0,3.3-1.47,5.7,5.7,0,0,0,1.21-3.78Z" transform="translate(-10.97 -23.18)" style="fill:#3d6f96"/><path d="M363.73,153v7.55h-3.05V142.37h6.74a7.22,7.22,0,0,1,4.72,1.38,4.81,4.81,0,0,1,1.66,3.93,4,4,0,0,1-.73,2.43,5,5,0,0,1-2.14,1.63,3.83,3.83,0,0,1,2.22,1.6,5.15,5.15,0,0,1,.68,2.72v1.52a5.86,5.86,0,0,0,.2,1.56,2.18,2.18,0,0,0,.67,1.17v.28h-3.13a2,2,0,0,1-.64-1.3,10.4,10.4,0,0,1-.15-1.74v-1.46a3,3,0,0,0-.8-2.23,2.9,2.9,0,0,0-2.2-.82Zm0-2.45h3.52a4.12,4.12,0,0,0,2.67-.7,2.62,2.62,0,0,0,.84-2.14,2.82,2.82,0,0,0-.83-2.15,3.5,3.5,0,0,0-2.51-.79h-3.69Z" transform="translate(-10.97 -23.18)" style="fill:#3d6f96"/><path d="M387.59,153.69v6.9h-3V142.37h7.12a6.76,6.76,0,0,1,4.73,1.56,5.81,5.81,0,0,1,0,8.21,6.81,6.81,0,0,1-4.73,1.55Zm0-2.45h4.08a3.33,3.33,0,0,0,2.54-.9,3.18,3.18,0,0,0,.85-2.29,3.07,3.07,0,0,0-3.39-3.24h-4.08Z" transform="translate(-10.97 -23.18)" style="fill:#3d6f96"/><path d="M404.4,153v7.55h-3V142.37h6.74a7.19,7.19,0,0,1,4.71,1.38,4.82,4.82,0,0,1,1.67,3.93,4,4,0,0,1-.73,2.43,5,5,0,0,1-2.14,1.63,3.83,3.83,0,0,1,2.22,1.6,5.15,5.15,0,0,1,.67,2.72v1.52a6.3,6.3,0,0,0,.2,1.56,2.25,2.25,0,0,0,.68,1.17v.28h-3.13a2,2,0,0,1-.64-1.3,10.4,10.4,0,0,1-.15-1.74v-1.46a3,3,0,0,0-.8-2.23,2.92,2.92,0,0,0-2.2-.82Zm0-2.45h3.53a4.12,4.12,0,0,0,2.67-.7,2.62,2.62,0,0,0,.84-2.14,2.82,2.82,0,0,0-.83-2.15,3.5,3.5,0,0,0-2.51-.79h-3.7Z" transform="translate(-10.97 -23.18)" style="fill:#3d6f96"/><path d="M432.79,153.12a7.72,7.72,0,0,1-2.09,5.54,7.2,7.2,0,0,1-5.44,2.2,7,7,0,0,1-5.33-2.2,7.81,7.81,0,0,1-2-5.54v-3.28a7.84,7.84,0,0,1,2-5.53,7,7,0,0,1,5.32-2.2,7.22,7.22,0,0,1,5.44,2.2,7.71,7.71,0,0,1,2.1,5.53Zm-3-3.3a5.6,5.6,0,0,0-1.23-3.74,4,4,0,0,0-3.29-1.47,3.83,3.83,0,0,0-3.17,1.47,5.84,5.84,0,0,0-1.16,3.74v3.3a5.94,5.94,0,0,0,1.16,3.78,3.85,3.85,0,0,0,3.18,1.47,4.06,4.06,0,0,0,3.3-1.47,5.75,5.75,0,0,0,1.21-3.78Z" transform="translate(-10.97 -23.18)" style="fill:#3d6f96"/><path d="M447.37,152.82h-8v7.77h-3V142.37h12.3v2.44h-9.26v5.57h8Z" transform="translate(-10.97 -23.18)" style="fill:#3d6f96"/><path d="M462.48,152.4h-8v5.75h9.25v2.44H451.47V142.37h12.2v2.44h-9.16V150h8Z" transform="translate(-10.97 -23.18)" style="fill:#3d6f96"/><path d="M476.45,155.9a2.35,2.35,0,0,0-.84-1.86,8,8,0,0,0-3-1.29,12.8,12.8,0,0,1-4.7-2.12,4.22,4.22,0,0,1-1.64-3.46,4.4,4.4,0,0,1,1.82-3.63,7.34,7.34,0,0,1,4.7-1.43,7,7,0,0,1,4.82,1.62,4.86,4.86,0,0,1,1.76,3.89l0,.07h-2.91a3,3,0,0,0-.95-2.27,3.9,3.9,0,0,0-2.72-.87,4,4,0,0,0-2.56.72,2.33,2.33,0,0,0-.89,1.88,2,2,0,0,0,1,1.72,10.6,10.6,0,0,0,3.21,1.3,10.61,10.61,0,0,1,4.47,2.18,4.58,4.58,0,0,1,1.52,3.54,4.28,4.28,0,0,1-1.82,3.62,7.84,7.84,0,0,1-4.79,1.35,8.46,8.46,0,0,1-5-1.52,4.67,4.67,0,0,1-2.09-4.15l0-.08h2.93a2.88,2.88,0,0,0,1.15,2.49,5.1,5.1,0,0,0,3,.82,4.43,4.43,0,0,0,2.63-.68A2.16,2.16,0,0,0,476.45,155.9Z" transform="translate(-10.97 -23.18)" style="fill:#3d6f96"/><path d="M492.83,155.9A2.33,2.33,0,0,0,492,154a8,8,0,0,0-3-1.29,12.64,12.64,0,0,1-4.7-2.12,4.23,4.23,0,0,1-1.65-3.46,4.43,4.43,0,0,1,1.82-3.63,7.36,7.36,0,0,1,4.7-1.43,7,7,0,0,1,4.83,1.62,4.86,4.86,0,0,1,1.76,3.89l0,.07h-2.92a2.92,2.92,0,0,0-.95-2.27,3.87,3.87,0,0,0-2.71-.87,4,4,0,0,0-2.56.72,2.31,2.31,0,0,0-.9,1.88,2.06,2.06,0,0,0,1,1.72,10.83,10.83,0,0,0,3.21,1.3,10.61,10.61,0,0,1,4.47,2.18,4.55,4.55,0,0,1,1.53,3.54,4.28,4.28,0,0,1-1.82,3.62,7.86,7.86,0,0,1-4.79,1.35,8.51,8.51,0,0,1-5-1.52,4.69,4.69,0,0,1-2.09-4.15l0-.08h2.93a2.85,2.85,0,0,0,1.15,2.49,5.08,5.08,0,0,0,3,.82,4.45,4.45,0,0,0,2.63-.68A2.18,2.18,0,0,0,492.83,155.9Z" transform="translate(-10.97 -23.18)" style="fill:#3d6f96"/><path d="M502.54,160.59h-3V142.37h3Z" transform="translate(-10.97 -23.18)" style="fill:#3d6f96"/><path d="M521.16,153.12a7.69,7.69,0,0,1-2.1,5.54,7.18,7.18,0,0,1-5.43,2.2,7,7,0,0,1-5.33-2.2,7.82,7.82,0,0,1-2.05-5.54v-3.28a7.85,7.85,0,0,1,2.05-5.53,7,7,0,0,1,5.31-2.2,7.22,7.22,0,0,1,5.45,2.2,7.71,7.71,0,0,1,2.1,5.53Zm-3-3.3a5.65,5.65,0,0,0-1.22-3.74,4.06,4.06,0,0,0-3.3-1.47,3.81,3.81,0,0,0-3.16,1.47,5.79,5.79,0,0,0-1.17,3.74v3.3a5.88,5.88,0,0,0,1.17,3.78,3.82,3.82,0,0,0,3.18,1.47,4,4,0,0,0,3.29-1.47,5.7,5.7,0,0,0,1.21-3.78Z" transform="translate(-10.97 -23.18)" style="fill:#3d6f96"/><path d="M538.94,160.59h-3l-8.09-13.3-.07,0v13.27h-3V142.37h3l8.08,13.29.08,0V142.37h3Z" transform="translate(-10.97 -23.18)" style="fill:#3d6f96"/><path d="M553.06,156.34h-7.13l-1.46,4.25H541.4l6.69-18.22H551l6.62,18.22H554.5Zm-6.26-2.54h5.4L549.56,146h-.08Z" transform="translate(-10.97 -23.18)" style="fill:#3d6f96"/><path d="M563,158.15h8.37v2.44H560V142.37h3Z" transform="translate(-10.97 -23.18)" style="fill:#3d6f96"/><path d="M584,155.9a2.33,2.33,0,0,0-.85-1.86,7.88,7.88,0,0,0-3-1.29,12.72,12.72,0,0,1-4.7-2.12,4.23,4.23,0,0,1-1.65-3.46,4.43,4.43,0,0,1,1.82-3.63,7.38,7.38,0,0,1,4.71-1.43,7,7,0,0,1,4.82,1.62,4.86,4.86,0,0,1,1.76,3.89l0,.07H584a3,3,0,0,0-1-2.27,3.9,3.9,0,0,0-2.72-.87,4,4,0,0,0-2.56.72,2.3,2.3,0,0,0-.89,1.88,2,2,0,0,0,1,1.72,10.6,10.6,0,0,0,3.21,1.3,10.5,10.5,0,0,1,4.46,2.18,4.55,4.55,0,0,1,1.53,3.54,4.28,4.28,0,0,1-1.82,3.62,7.84,7.84,0,0,1-4.79,1.35,8.46,8.46,0,0,1-5-1.52,4.65,4.65,0,0,1-2.09-4.15l0-.08h2.93a2.85,2.85,0,0,0,1.15,2.49,5.1,5.1,0,0,0,3,.82,4.45,4.45,0,0,0,2.63-.68A2.16,2.16,0,0,0,584,155.9Z" transform="translate(-10.97 -23.18)" style="fill:#3d6f96"/></svg>